<mxfile host="app.diagrams.net" agent="Mozilla/5.0 (Windows NT 10.0; Win64; x64) AppleWebKit/537.36 (KHTML, like Gecko) Chrome/129.0.0.0 Safari/537.36" version="24.7.17" pages="3">
  <diagram name="Gesteckte Seiten" id="jSl-4Mq9sxYvDSC_SoyZ">
    <mxGraphModel dx="2037" dy="757" grid="1" gridSize="10" guides="1" tooltips="1" connect="1" arrows="1" fold="1" page="1" pageScale="1" pageWidth="1169" pageHeight="827" math="0" shadow="0">
      <root>
        <mxCell id="0" />
        <mxCell id="1" parent="0" />
        <mxCell id="Y5N6q6g7pHVYD4ZTRwSb-2" value="" style="shape=cube;whiteSpace=wrap;html=1;boundedLbl=1;backgroundOutline=1;darkOpacity=0.05;darkOpacity2=0.1;size=20;flipV=0;flipH=1;strokeColor=none;fillColor=#dae8fc;" vertex="1" parent="1">
          <mxGeometry x="200" y="200" width="360" height="280" as="geometry" />
        </mxCell>
        <mxCell id="Y5N6q6g7pHVYD4ZTRwSb-3" value="" style="shape=cube;whiteSpace=wrap;html=1;boundedLbl=1;backgroundOutline=1;darkOpacity=0.05;darkOpacity2=0.1;size=120;flipV=0;flipH=1;strokeColor=none;fillColor=#f8cecc;" vertex="1" parent="1">
          <mxGeometry x="530" y="100" width="160" height="380" as="geometry" />
        </mxCell>
        <mxCell id="Y5N6q6g7pHVYD4ZTRwSb-4" value="" style="rounded=0;whiteSpace=wrap;html=1;fillColor=#dae8fc;strokeColor=none;" vertex="1" parent="1">
          <mxGeometry x="520" y="250" width="50" height="40" as="geometry" />
        </mxCell>
        <mxCell id="Y5N6q6g7pHVYD4ZTRwSb-5" value="" style="rounded=0;whiteSpace=wrap;html=1;fillColor=#dae8fc;strokeColor=none;" vertex="1" parent="1">
          <mxGeometry x="520" y="330" width="50" height="40" as="geometry" />
        </mxCell>
        <mxCell id="Y5N6q6g7pHVYD4ZTRwSb-6" value="" style="rounded=0;whiteSpace=wrap;html=1;fillColor=#dae8fc;strokeColor=none;" vertex="1" parent="1">
          <mxGeometry x="520" y="410" width="50" height="40" as="geometry" />
        </mxCell>
        <mxCell id="Y5N6q6g7pHVYD4ZTRwSb-7" value="" style="shape=parallelogram;perimeter=parallelogramPerimeter;whiteSpace=wrap;html=1;fixedSize=1;size=22.5;rotation=-90;flipV=1;fillColor=#A9C4EB;strokeColor=none;" vertex="1" parent="1">
          <mxGeometry x="548.75" y="248.75" width="62.5" height="20" as="geometry" />
        </mxCell>
        <mxCell id="Y5N6q6g7pHVYD4ZTRwSb-8" value="" style="shape=parallelogram;perimeter=parallelogramPerimeter;whiteSpace=wrap;html=1;fixedSize=1;size=22.5;rotation=-90;flipV=1;fillColor=#A9C4EB;strokeColor=none;" vertex="1" parent="1">
          <mxGeometry x="548.75" y="330" width="62.5" height="20" as="geometry" />
        </mxCell>
        <mxCell id="Y5N6q6g7pHVYD4ZTRwSb-9" value="" style="shape=parallelogram;perimeter=parallelogramPerimeter;whiteSpace=wrap;html=1;fixedSize=1;size=22.5;rotation=-90;flipV=1;fillColor=#A9C4EB;strokeColor=none;" vertex="1" parent="1">
          <mxGeometry x="548.75" y="410" width="62.5" height="20" as="geometry" />
        </mxCell>
        <mxCell id="Y5N6q6g7pHVYD4ZTRwSb-11" value="" style="endArrow=none;html=1;rounded=0;entryX=0;entryY=0;entryDx=360;entryDy=20;entryPerimeter=0;exitX=1;exitY=1;exitDx=0;exitDy=0;exitPerimeter=0;" edge="1" parent="1" source="Y5N6q6g7pHVYD4ZTRwSb-2" target="Y5N6q6g7pHVYD4ZTRwSb-2">
          <mxGeometry width="50" height="50" relative="1" as="geometry">
            <mxPoint x="210" y="270" as="sourcePoint" />
            <mxPoint x="260" y="220" as="targetPoint" />
          </mxGeometry>
        </mxCell>
        <mxCell id="Y5N6q6g7pHVYD4ZTRwSb-12" value="" style="endArrow=none;html=1;rounded=0;entryX=0;entryY=0;entryDx=360;entryDy=20;entryPerimeter=0;exitX=0;exitY=0;exitDx=340;exitDy=0;exitPerimeter=0;" edge="1" parent="1" source="Y5N6q6g7pHVYD4ZTRwSb-2" target="Y5N6q6g7pHVYD4ZTRwSb-2">
          <mxGeometry width="50" height="50" relative="1" as="geometry">
            <mxPoint x="210" y="490" as="sourcePoint" />
            <mxPoint x="210" y="230" as="targetPoint" />
          </mxGeometry>
        </mxCell>
        <mxCell id="Y5N6q6g7pHVYD4ZTRwSb-13" value="" style="endArrow=none;html=1;rounded=0;exitX=0;exitY=0;exitDx=340;exitDy=0;exitPerimeter=0;" edge="1" parent="1" source="Y5N6q6g7pHVYD4ZTRwSb-2">
          <mxGeometry width="50" height="50" relative="1" as="geometry">
            <mxPoint x="230" y="210" as="sourcePoint" />
            <mxPoint x="550" y="200" as="targetPoint" />
          </mxGeometry>
        </mxCell>
        <mxCell id="Y5N6q6g7pHVYD4ZTRwSb-14" value="" style="endArrow=none;html=1;rounded=0;entryX=0;entryY=0;entryDx=160;entryDy=120;entryPerimeter=0;exitX=0;exitY=0;exitDx=40;exitDy=0;exitPerimeter=0;" edge="1" parent="1" source="Y5N6q6g7pHVYD4ZTRwSb-3" target="Y5N6q6g7pHVYD4ZTRwSb-3">
          <mxGeometry width="50" height="50" relative="1" as="geometry">
            <mxPoint x="230" y="210" as="sourcePoint" />
            <mxPoint x="566" y="210" as="targetPoint" />
          </mxGeometry>
        </mxCell>
        <mxCell id="Y5N6q6g7pHVYD4ZTRwSb-15" value="" style="endArrow=none;html=1;rounded=0;entryX=0;entryY=0;entryDx=0;entryDy=0;entryPerimeter=0;exitX=0;exitY=0;exitDx=40;exitDy=0;exitPerimeter=0;" edge="1" parent="1" source="Y5N6q6g7pHVYD4ZTRwSb-3" target="Y5N6q6g7pHVYD4ZTRwSb-3">
          <mxGeometry width="50" height="50" relative="1" as="geometry">
            <mxPoint x="660" y="110" as="sourcePoint" />
            <mxPoint x="540" y="230" as="targetPoint" />
          </mxGeometry>
        </mxCell>
        <mxCell id="Y5N6q6g7pHVYD4ZTRwSb-16" value="" style="endArrow=none;html=1;rounded=0;entryX=0;entryY=0;entryDx=0;entryDy=0;entryPerimeter=0;exitX=0;exitY=0;exitDx=0;exitDy=260;exitPerimeter=0;" edge="1" parent="1" source="Y5N6q6g7pHVYD4ZTRwSb-3" target="Y5N6q6g7pHVYD4ZTRwSb-3">
          <mxGeometry width="50" height="50" relative="1" as="geometry">
            <mxPoint x="660" y="110" as="sourcePoint" />
            <mxPoint x="700" y="110" as="targetPoint" />
          </mxGeometry>
        </mxCell>
        <mxCell id="Y5N6q6g7pHVYD4ZTRwSb-17" value="" style="endArrow=none;html=1;rounded=0;entryX=0;entryY=0;entryDx=120;entryDy=380;entryPerimeter=0;exitX=0;exitY=0;exitDx=0;exitDy=260;exitPerimeter=0;" edge="1" parent="1" source="Y5N6q6g7pHVYD4ZTRwSb-3" target="Y5N6q6g7pHVYD4ZTRwSb-3">
          <mxGeometry width="50" height="50" relative="1" as="geometry">
            <mxPoint x="700" y="370" as="sourcePoint" />
            <mxPoint x="700" y="110" as="targetPoint" />
          </mxGeometry>
        </mxCell>
        <mxCell id="Y5N6q6g7pHVYD4ZTRwSb-18" value="" style="endArrow=none;html=1;rounded=0;entryX=0;entryY=0;entryDx=120;entryDy=380;entryPerimeter=0;" edge="1" parent="1" target="Y5N6q6g7pHVYD4ZTRwSb-3">
          <mxGeometry width="50" height="50" relative="1" as="geometry">
            <mxPoint x="200" y="480" as="sourcePoint" />
            <mxPoint x="580" y="490" as="targetPoint" />
          </mxGeometry>
        </mxCell>
        <mxCell id="Y5N6q6g7pHVYD4ZTRwSb-19" value="" style="endArrow=none;html=1;rounded=0;exitX=0.75;exitY=0.316;exitDx=0;exitDy=0;exitPerimeter=0;" edge="1" parent="1" source="Y5N6q6g7pHVYD4ZTRwSb-3">
          <mxGeometry width="50" height="50" relative="1" as="geometry">
            <mxPoint x="700" y="370" as="sourcePoint" />
            <mxPoint x="690" y="100" as="targetPoint" />
          </mxGeometry>
        </mxCell>
        <mxCell id="Y5N6q6g7pHVYD4ZTRwSb-20" value="" style="endArrow=none;html=1;rounded=0;exitX=0;exitY=0;exitDx=360;exitDy=20;exitPerimeter=0;" edge="1" parent="1" source="Y5N6q6g7pHVYD4ZTRwSb-2">
          <mxGeometry width="50" height="50" relative="1" as="geometry">
            <mxPoint x="580" y="230" as="sourcePoint" />
            <mxPoint x="570" y="220" as="targetPoint" />
          </mxGeometry>
        </mxCell>
        <mxCell id="Y5N6q6g7pHVYD4ZTRwSb-21" value="" style="endArrow=none;html=1;rounded=0;entryX=0;entryY=0;entryDx=120;entryDy=380;entryPerimeter=0;" edge="1" parent="1" target="Y5N6q6g7pHVYD4ZTRwSb-3">
          <mxGeometry width="50" height="50" relative="1" as="geometry">
            <mxPoint x="570" y="220" as="sourcePoint" />
            <mxPoint x="700" y="110" as="targetPoint" />
          </mxGeometry>
        </mxCell>
        <mxCell id="Y5N6q6g7pHVYD4ZTRwSb-22" value="" style="endArrow=none;html=1;rounded=0;entryX=0.2;entryY=0.005;entryDx=0;entryDy=0;entryPerimeter=0;exitX=0;exitY=0;exitDx=160;exitDy=120;exitPerimeter=0;" edge="1" parent="1" source="Y5N6q6g7pHVYD4ZTRwSb-3" target="Y5N6q6g7pHVYD4ZTRwSb-4">
          <mxGeometry width="50" height="50" relative="1" as="geometry">
            <mxPoint x="580" y="230" as="sourcePoint" />
            <mxPoint x="580" y="490" as="targetPoint" />
          </mxGeometry>
        </mxCell>
        <mxCell id="Y5N6q6g7pHVYD4ZTRwSb-23" value="" style="endArrow=none;html=1;rounded=0;entryX=0.209;entryY=0.991;entryDx=0;entryDy=0;exitX=0.204;exitY=-0.009;exitDx=0;exitDy=0;exitPerimeter=0;entryPerimeter=0;" edge="1" parent="1" source="Y5N6q6g7pHVYD4ZTRwSb-5" target="Y5N6q6g7pHVYD4ZTRwSb-4">
          <mxGeometry width="50" height="50" relative="1" as="geometry">
            <mxPoint x="540" y="230" as="sourcePoint" />
            <mxPoint x="540" y="260" as="targetPoint" />
          </mxGeometry>
        </mxCell>
        <mxCell id="Y5N6q6g7pHVYD4ZTRwSb-24" value="" style="endArrow=none;html=1;rounded=0;entryX=0.999;entryY=0.816;entryDx=0;entryDy=0;entryPerimeter=0;" edge="1" parent="1" target="Y5N6q6g7pHVYD4ZTRwSb-3">
          <mxGeometry width="50" height="50" relative="1" as="geometry">
            <mxPoint x="530" y="370" as="sourcePoint" />
            <mxPoint x="540" y="300" as="targetPoint" />
          </mxGeometry>
        </mxCell>
        <mxCell id="Y5N6q6g7pHVYD4ZTRwSb-25" value="" style="endArrow=none;html=1;rounded=0;exitX=0.2;exitY=1.003;exitDx=0;exitDy=0;exitPerimeter=0;" edge="1" parent="1" source="Y5N6q6g7pHVYD4ZTRwSb-6">
          <mxGeometry width="50" height="50" relative="1" as="geometry">
            <mxPoint x="540" y="380" as="sourcePoint" />
            <mxPoint x="530" y="480" as="targetPoint" />
          </mxGeometry>
        </mxCell>
        <mxCell id="Y5N6q6g7pHVYD4ZTRwSb-26" value="" style="endArrow=none;html=1;rounded=0;exitX=1;exitY=0.92;exitDx=0;exitDy=0;exitPerimeter=0;" edge="1" parent="1" source="Y5N6q6g7pHVYD4ZTRwSb-3">
          <mxGeometry width="50" height="50" relative="1" as="geometry">
            <mxPoint x="540" y="460" as="sourcePoint" />
            <mxPoint x="570" y="450" as="targetPoint" />
          </mxGeometry>
        </mxCell>
        <mxCell id="Y5N6q6g7pHVYD4ZTRwSb-27" value="" style="endArrow=none;html=1;rounded=0;exitX=0.204;exitY=-0.003;exitDx=0;exitDy=0;exitPerimeter=0;" edge="1" parent="1" source="Y5N6q6g7pHVYD4ZTRwSb-6">
          <mxGeometry width="50" height="50" relative="1" as="geometry">
            <mxPoint x="540" y="460" as="sourcePoint" />
            <mxPoint x="570" y="410" as="targetPoint" />
          </mxGeometry>
        </mxCell>
        <mxCell id="Y5N6q6g7pHVYD4ZTRwSb-28" value="" style="endArrow=none;html=1;rounded=0;exitX=1;exitY=0.71;exitDx=0;exitDy=0;exitPerimeter=0;" edge="1" parent="1" source="Y5N6q6g7pHVYD4ZTRwSb-3">
          <mxGeometry width="50" height="50" relative="1" as="geometry">
            <mxPoint x="540" y="420" as="sourcePoint" />
            <mxPoint x="570" y="370" as="targetPoint" />
          </mxGeometry>
        </mxCell>
        <mxCell id="Y5N6q6g7pHVYD4ZTRwSb-29" value="" style="endArrow=none;html=1;rounded=0;exitX=1;exitY=0.603;exitDx=0;exitDy=0;exitPerimeter=0;" edge="1" parent="1">
          <mxGeometry width="50" height="50" relative="1" as="geometry">
            <mxPoint x="530" y="330.1400000000001" as="sourcePoint" />
            <mxPoint x="570" y="330" as="targetPoint" />
          </mxGeometry>
        </mxCell>
        <mxCell id="Y5N6q6g7pHVYD4ZTRwSb-31" value="" style="endArrow=none;html=1;rounded=0;exitX=0.196;exitY=-0.002;exitDx=0;exitDy=0;exitPerimeter=0;entryX=0.641;entryY=0.994;entryDx=0;entryDy=0;entryPerimeter=0;" edge="1" parent="1" source="Y5N6q6g7pHVYD4ZTRwSb-4" target="Y5N6q6g7pHVYD4ZTRwSb-7">
          <mxGeometry width="50" height="50" relative="1" as="geometry">
            <mxPoint x="540" y="299" as="sourcePoint" />
            <mxPoint x="580" y="300" as="targetPoint" />
          </mxGeometry>
        </mxCell>
        <mxCell id="Y5N6q6g7pHVYD4ZTRwSb-32" value="" style="endArrow=none;html=1;rounded=0;exitX=0.206;exitY=0.994;exitDx=0;exitDy=0;exitPerimeter=0;entryX=1;entryY=1;entryDx=0;entryDy=0;" edge="1" parent="1" source="Y5N6q6g7pHVYD4ZTRwSb-4" target="Y5N6q6g7pHVYD4ZTRwSb-4">
          <mxGeometry width="50" height="50" relative="1" as="geometry">
            <mxPoint x="540" y="260" as="sourcePoint" />
            <mxPoint x="580" y="260" as="targetPoint" />
          </mxGeometry>
        </mxCell>
        <mxCell id="Y5N6q6g7pHVYD4ZTRwSb-33" value="" style="endArrow=none;html=1;rounded=0;exitX=0.348;exitY=0.001;exitDx=0;exitDy=0;exitPerimeter=0;entryX=1;entryY=1;entryDx=0;entryDy=0;" edge="1" parent="1" source="Y5N6q6g7pHVYD4ZTRwSb-7" target="Y5N6q6g7pHVYD4ZTRwSb-7">
          <mxGeometry width="50" height="50" relative="1" as="geometry">
            <mxPoint x="540" y="260" as="sourcePoint" />
            <mxPoint x="580" y="260" as="targetPoint" />
          </mxGeometry>
        </mxCell>
        <mxCell id="Y5N6q6g7pHVYD4ZTRwSb-34" value="" style="endArrow=none;html=1;rounded=0;exitX=1;exitY=1;exitDx=0;exitDy=0;entryX=0.36;entryY=0.001;entryDx=0;entryDy=0;entryPerimeter=0;" edge="1" parent="1">
          <mxGeometry width="50" height="50" relative="1" as="geometry">
            <mxPoint x="590" y="309.75" as="sourcePoint" />
            <mxPoint x="589.9799999999998" y="349.75" as="targetPoint" />
          </mxGeometry>
        </mxCell>
        <mxCell id="Y5N6q6g7pHVYD4ZTRwSb-35" value="" style="endArrow=none;html=1;rounded=0;" edge="1" parent="1">
          <mxGeometry width="50" height="50" relative="1" as="geometry">
            <mxPoint x="590" y="430" as="sourcePoint" />
            <mxPoint x="590" y="390" as="targetPoint" />
          </mxGeometry>
        </mxCell>
        <mxCell id="Y5N6q6g7pHVYD4ZTRwSb-36" value="" style="endArrow=none;html=1;rounded=0;exitX=0.348;exitY=0.001;exitDx=0;exitDy=0;exitPerimeter=0;entryX=0;entryY=0;entryDx=0;entryDy=0;" edge="1" parent="1" source="Y5N6q6g7pHVYD4ZTRwSb-7" target="Y5N6q6g7pHVYD4ZTRwSb-7">
          <mxGeometry width="50" height="50" relative="1" as="geometry">
            <mxPoint x="600" y="278" as="sourcePoint" />
            <mxPoint x="600" y="238" as="targetPoint" />
          </mxGeometry>
        </mxCell>
        <mxCell id="Y5N6q6g7pHVYD4ZTRwSb-37" value="" style="endArrow=none;html=1;rounded=0;exitX=1;exitY=1;exitDx=0;exitDy=0;entryX=0.646;entryY=1.001;entryDx=0;entryDy=0;entryPerimeter=0;" edge="1" parent="1" source="Y5N6q6g7pHVYD4ZTRwSb-7" target="Y5N6q6g7pHVYD4ZTRwSb-7">
          <mxGeometry width="50" height="50" relative="1" as="geometry">
            <mxPoint x="600" y="278" as="sourcePoint" />
            <mxPoint x="580" y="300" as="targetPoint" />
          </mxGeometry>
        </mxCell>
        <mxCell id="Y5N6q6g7pHVYD4ZTRwSb-38" value="" style="endArrow=none;html=1;rounded=0;" edge="1" parent="1">
          <mxGeometry width="50" height="50" relative="1" as="geometry">
            <mxPoint x="590" y="310" as="sourcePoint" />
            <mxPoint x="570" y="330" as="targetPoint" />
          </mxGeometry>
        </mxCell>
        <mxCell id="Y5N6q6g7pHVYD4ZTRwSb-39" value="" style="endArrow=none;html=1;rounded=0;entryX=0;entryY=0;entryDx=0;entryDy=0;" edge="1" parent="1" target="Y5N6q6g7pHVYD4ZTRwSb-8">
          <mxGeometry width="50" height="50" relative="1" as="geometry">
            <mxPoint x="590" y="350" as="sourcePoint" />
            <mxPoint x="580" y="340" as="targetPoint" />
          </mxGeometry>
        </mxCell>
        <mxCell id="Y5N6q6g7pHVYD4ZTRwSb-40" value="" style="endArrow=none;html=1;rounded=0;" edge="1" parent="1">
          <mxGeometry width="50" height="50" relative="1" as="geometry">
            <mxPoint x="590" y="390" as="sourcePoint" />
            <mxPoint x="570" y="410" as="targetPoint" />
          </mxGeometry>
        </mxCell>
        <mxCell id="Y5N6q6g7pHVYD4ZTRwSb-41" value="" style="endArrow=none;html=1;rounded=0;entryX=0;entryY=0;entryDx=0;entryDy=0;" edge="1" parent="1">
          <mxGeometry width="50" height="50" relative="1" as="geometry">
            <mxPoint x="590" y="429" as="sourcePoint" />
            <mxPoint x="570" y="450.25" as="targetPoint" />
          </mxGeometry>
        </mxCell>
        <mxCell id="Y5N6q6g7pHVYD4ZTRwSb-42" value="" style="ellipse;whiteSpace=wrap;html=1;fillColor=#A9C4EB;strokeColor=#000000;" vertex="1" parent="1">
          <mxGeometry x="470" y="260" width="20" height="20" as="geometry" />
        </mxCell>
        <mxCell id="Y5N6q6g7pHVYD4ZTRwSb-43" value="" style="ellipse;whiteSpace=wrap;html=1;fillColor=#A9C4EB;strokeColor=#000000;" vertex="1" parent="1">
          <mxGeometry x="470" y="420" width="20" height="20" as="geometry" />
        </mxCell>
        <mxCell id="Y5N6q6g7pHVYD4ZTRwSb-44" value="" style="ellipse;whiteSpace=wrap;html=1;fillColor=#A9C4EB;strokeColor=#000000;" vertex="1" parent="1">
          <mxGeometry x="470" y="340" width="20" height="20" as="geometry" />
        </mxCell>
        <mxCell id="Y5N6q6g7pHVYD4ZTRwSb-45" value="" style="ellipse;whiteSpace=wrap;html=1;rotation=-90;fillColor=#f8cecc;strokeColor=#b85450;" vertex="1" parent="1">
          <mxGeometry x="611.25" y="222.66" width="20.29" height="16" as="geometry" />
        </mxCell>
        <mxCell id="Y5N6q6g7pHVYD4ZTRwSb-46" value="" style="ellipse;whiteSpace=wrap;html=1;rotation=-90;fillColor=#f8cecc;strokeColor=#b85450;" vertex="1" parent="1">
          <mxGeometry x="611.25" y="300" width="20.29" height="16" as="geometry" />
        </mxCell>
        <mxCell id="Y5N6q6g7pHVYD4ZTRwSb-47" value="" style="ellipse;whiteSpace=wrap;html=1;rotation=-92;fillColor=#f8cecc;strokeColor=#b85450;" vertex="1" parent="1">
          <mxGeometry x="611.25" y="380" width="20.29" height="16" as="geometry" />
        </mxCell>
      </root>
    </mxGraphModel>
  </diagram>
  <diagram id="JBnZmfILMe1Z6b-gvCDr" name="Positionierter Winkel">
    <mxGraphModel dx="2462" dy="915" grid="1" gridSize="10" guides="1" tooltips="1" connect="1" arrows="1" fold="1" page="1" pageScale="1" pageWidth="1169" pageHeight="827" math="0" shadow="0">
      <root>
        <mxCell id="0" />
        <mxCell id="1" parent="0" />
        <mxCell id="mU_clufZQW-tgFeg3apf-1" value="" style="shape=cube;whiteSpace=wrap;html=1;boundedLbl=1;backgroundOutline=1;darkOpacity=0.05;darkOpacity2=0.1;size=20;flipV=0;flipH=1;strokeColor=none;fillColor=#dae8fc;" vertex="1" parent="1">
          <mxGeometry x="200" y="200" width="360" height="280" as="geometry" />
        </mxCell>
        <mxCell id="mU_clufZQW-tgFeg3apf-2" value="" style="shape=cube;whiteSpace=wrap;html=1;boundedLbl=1;backgroundOutline=1;darkOpacity=0.05;darkOpacity2=0.1;size=120;flipV=0;flipH=1;strokeColor=none;fillColor=#f8cecc;" vertex="1" parent="1">
          <mxGeometry x="530" y="100" width="160" height="380" as="geometry" />
        </mxCell>
        <mxCell id="mU_clufZQW-tgFeg3apf-9" value="" style="endArrow=none;html=1;rounded=0;entryX=0;entryY=0;entryDx=360;entryDy=20;entryPerimeter=0;exitX=1;exitY=1;exitDx=0;exitDy=0;exitPerimeter=0;" edge="1" parent="1" source="mU_clufZQW-tgFeg3apf-1" target="mU_clufZQW-tgFeg3apf-1">
          <mxGeometry width="50" height="50" relative="1" as="geometry">
            <mxPoint x="210" y="270" as="sourcePoint" />
            <mxPoint x="260" y="220" as="targetPoint" />
          </mxGeometry>
        </mxCell>
        <mxCell id="mU_clufZQW-tgFeg3apf-10" value="" style="endArrow=none;html=1;rounded=0;entryX=0;entryY=0;entryDx=360;entryDy=20;entryPerimeter=0;exitX=0;exitY=0;exitDx=340;exitDy=0;exitPerimeter=0;" edge="1" parent="1" source="mU_clufZQW-tgFeg3apf-1" target="mU_clufZQW-tgFeg3apf-1">
          <mxGeometry width="50" height="50" relative="1" as="geometry">
            <mxPoint x="210" y="490" as="sourcePoint" />
            <mxPoint x="210" y="230" as="targetPoint" />
          </mxGeometry>
        </mxCell>
        <mxCell id="mU_clufZQW-tgFeg3apf-11" value="" style="endArrow=none;html=1;rounded=0;exitX=0;exitY=0;exitDx=340;exitDy=0;exitPerimeter=0;" edge="1" parent="1" source="mU_clufZQW-tgFeg3apf-1">
          <mxGeometry width="50" height="50" relative="1" as="geometry">
            <mxPoint x="230" y="210" as="sourcePoint" />
            <mxPoint x="550" y="200" as="targetPoint" />
          </mxGeometry>
        </mxCell>
        <mxCell id="mU_clufZQW-tgFeg3apf-12" value="" style="endArrow=none;html=1;rounded=0;entryX=0;entryY=0;entryDx=160;entryDy=120;entryPerimeter=0;exitX=0;exitY=0;exitDx=40;exitDy=0;exitPerimeter=0;" edge="1" parent="1" source="mU_clufZQW-tgFeg3apf-2" target="mU_clufZQW-tgFeg3apf-2">
          <mxGeometry width="50" height="50" relative="1" as="geometry">
            <mxPoint x="230" y="210" as="sourcePoint" />
            <mxPoint x="566" y="210" as="targetPoint" />
          </mxGeometry>
        </mxCell>
        <mxCell id="mU_clufZQW-tgFeg3apf-13" value="" style="endArrow=none;html=1;rounded=0;entryX=0;entryY=0;entryDx=0;entryDy=0;entryPerimeter=0;exitX=0;exitY=0;exitDx=40;exitDy=0;exitPerimeter=0;" edge="1" parent="1" source="mU_clufZQW-tgFeg3apf-2" target="mU_clufZQW-tgFeg3apf-2">
          <mxGeometry width="50" height="50" relative="1" as="geometry">
            <mxPoint x="660" y="110" as="sourcePoint" />
            <mxPoint x="540" y="230" as="targetPoint" />
          </mxGeometry>
        </mxCell>
        <mxCell id="mU_clufZQW-tgFeg3apf-15" value="" style="endArrow=none;html=1;rounded=0;entryX=0;entryY=0;entryDx=120;entryDy=380;entryPerimeter=0;exitX=0;exitY=0;exitDx=0;exitDy=260;exitPerimeter=0;" edge="1" parent="1" source="mU_clufZQW-tgFeg3apf-2" target="mU_clufZQW-tgFeg3apf-2">
          <mxGeometry width="50" height="50" relative="1" as="geometry">
            <mxPoint x="700" y="370" as="sourcePoint" />
            <mxPoint x="700" y="110" as="targetPoint" />
          </mxGeometry>
        </mxCell>
        <mxCell id="mU_clufZQW-tgFeg3apf-16" value="" style="endArrow=none;html=1;rounded=0;entryX=0;entryY=0;entryDx=120;entryDy=380;entryPerimeter=0;" edge="1" parent="1" target="mU_clufZQW-tgFeg3apf-2">
          <mxGeometry width="50" height="50" relative="1" as="geometry">
            <mxPoint x="200" y="480" as="sourcePoint" />
            <mxPoint x="580" y="490" as="targetPoint" />
          </mxGeometry>
        </mxCell>
        <mxCell id="mU_clufZQW-tgFeg3apf-47" value="" style="shape=cube;whiteSpace=wrap;html=1;boundedLbl=1;backgroundOutline=1;darkOpacity=0.05;darkOpacity2=0.1;size=60;flipV=0;flipH=1;strokeColor=none;fillColor=#f5f5f5;fontColor=#333333;" vertex="1" parent="1">
          <mxGeometry x="569" y="162" width="80" height="319" as="geometry" />
        </mxCell>
        <mxCell id="mU_clufZQW-tgFeg3apf-46" value="" style="shape=cube;whiteSpace=wrap;html=1;boundedLbl=1;backgroundOutline=1;darkOpacity=0.05;darkOpacity2=0.1;size=10;flipV=0;flipH=1;strokeColor=none;fillColor=#f5f5f5;fontColor=#333333;" vertex="1" parent="1">
          <mxGeometry x="440" y="220" width="150" height="270" as="geometry" />
        </mxCell>
        <mxCell id="mU_clufZQW-tgFeg3apf-49" value="" style="endArrow=none;html=1;rounded=0;exitX=0;exitY=0;exitDx=0;exitDy=260;exitPerimeter=0;" edge="1" parent="1" source="mU_clufZQW-tgFeg3apf-2">
          <mxGeometry width="50" height="50" relative="1" as="geometry">
            <mxPoint x="580" y="230" as="sourcePoint" />
            <mxPoint x="690" y="100" as="targetPoint" />
          </mxGeometry>
        </mxCell>
        <mxCell id="mU_clufZQW-tgFeg3apf-17" value="" style="endArrow=none;html=1;rounded=0;exitX=0.75;exitY=0.316;exitDx=0;exitDy=0;exitPerimeter=0;" edge="1" parent="1" source="mU_clufZQW-tgFeg3apf-2">
          <mxGeometry width="50" height="50" relative="1" as="geometry">
            <mxPoint x="700" y="370" as="sourcePoint" />
            <mxPoint x="690" y="100" as="targetPoint" />
          </mxGeometry>
        </mxCell>
        <mxCell id="mU_clufZQW-tgFeg3apf-18" value="" style="endArrow=none;html=1;rounded=0;exitX=0;exitY=0;exitDx=360;exitDy=20;exitPerimeter=0;" edge="1" parent="1" source="mU_clufZQW-tgFeg3apf-1">
          <mxGeometry width="50" height="50" relative="1" as="geometry">
            <mxPoint x="580" y="230" as="sourcePoint" />
            <mxPoint x="570" y="220" as="targetPoint" />
          </mxGeometry>
        </mxCell>
        <mxCell id="mU_clufZQW-tgFeg3apf-50" value="" style="endArrow=none;html=1;rounded=0;entryX=0;entryY=0;entryDx=150;entryDy=10;entryPerimeter=0;" edge="1" parent="1" target="mU_clufZQW-tgFeg3apf-46">
          <mxGeometry width="50" height="50" relative="1" as="geometry">
            <mxPoint x="450" y="220" as="sourcePoint" />
            <mxPoint x="810" y="270" as="targetPoint" />
          </mxGeometry>
        </mxCell>
        <mxCell id="mU_clufZQW-tgFeg3apf-51" value="" style="endArrow=none;html=1;rounded=0;entryX=0;entryY=0;entryDx=150;entryDy=10;entryPerimeter=0;exitX=0.067;exitY=0.037;exitDx=0;exitDy=0;exitPerimeter=0;" edge="1" parent="1" source="mU_clufZQW-tgFeg3apf-46" target="mU_clufZQW-tgFeg3apf-46">
          <mxGeometry width="50" height="50" relative="1" as="geometry">
            <mxPoint x="340" y="290" as="sourcePoint" />
            <mxPoint x="390" y="240" as="targetPoint" />
          </mxGeometry>
        </mxCell>
        <mxCell id="mU_clufZQW-tgFeg3apf-52" value="" style="endArrow=none;html=1;rounded=0;entryX=0;entryY=0;entryDx=0;entryDy=0;entryPerimeter=0;" edge="1" parent="1" target="mU_clufZQW-tgFeg3apf-47">
          <mxGeometry width="50" height="50" relative="1" as="geometry">
            <mxPoint x="580" y="230" as="sourcePoint" />
            <mxPoint x="450" y="240" as="targetPoint" />
          </mxGeometry>
        </mxCell>
        <mxCell id="mU_clufZQW-tgFeg3apf-53" value="" style="endArrow=none;html=1;rounded=0;entryX=0;entryY=0;entryDx=10;entryDy=270;entryPerimeter=0;" edge="1" parent="1" target="mU_clufZQW-tgFeg3apf-46">
          <mxGeometry width="50" height="50" relative="1" as="geometry">
            <mxPoint x="580" y="230" as="sourcePoint" />
            <mxPoint x="659" y="172" as="targetPoint" />
          </mxGeometry>
        </mxCell>
        <mxCell id="mU_clufZQW-tgFeg3apf-54" value="" style="endArrow=none;html=1;rounded=0;entryX=0;entryY=0;entryDx=10;entryDy=270;entryPerimeter=0;exitX=0;exitY=0;exitDx=0;exitDy=259;exitPerimeter=0;" edge="1" parent="1" source="mU_clufZQW-tgFeg3apf-47" target="mU_clufZQW-tgFeg3apf-46">
          <mxGeometry width="50" height="50" relative="1" as="geometry">
            <mxPoint x="590" y="240" as="sourcePoint" />
            <mxPoint x="590" y="500" as="targetPoint" />
          </mxGeometry>
        </mxCell>
        <mxCell id="mU_clufZQW-tgFeg3apf-55" value="" style="endArrow=none;html=1;rounded=0;exitX=1;exitY=1;exitDx=0;exitDy=0;exitPerimeter=0;" edge="1" parent="1" source="mU_clufZQW-tgFeg3apf-46">
          <mxGeometry width="50" height="50" relative="1" as="geometry">
            <mxPoint x="659" y="431" as="sourcePoint" />
            <mxPoint x="580" y="490" as="targetPoint" />
          </mxGeometry>
        </mxCell>
        <mxCell id="mU_clufZQW-tgFeg3apf-56" value="" style="endArrow=none;html=1;rounded=0;" edge="1" parent="1">
          <mxGeometry width="50" height="50" relative="1" as="geometry">
            <mxPoint x="440" y="490" as="sourcePoint" />
            <mxPoint x="440" y="230" as="targetPoint" />
          </mxGeometry>
        </mxCell>
        <mxCell id="mU_clufZQW-tgFeg3apf-57" value="" style="endArrow=none;html=1;rounded=0;entryX=0;entryY=0;entryDx=0;entryDy=0;entryPerimeter=0;exitX=0;exitY=0;exitDx=0;exitDy=259;exitPerimeter=0;" edge="1" parent="1" source="mU_clufZQW-tgFeg3apf-47" target="mU_clufZQW-tgFeg3apf-47">
          <mxGeometry width="50" height="50" relative="1" as="geometry">
            <mxPoint x="450" y="500" as="sourcePoint" />
            <mxPoint x="450" y="240" as="targetPoint" />
          </mxGeometry>
        </mxCell>
        <mxCell id="mU_clufZQW-tgFeg3apf-58" value="" style="endArrow=none;html=1;rounded=0;exitX=0;exitY=0;exitDx=20;exitDy=0;exitPerimeter=0;" edge="1" parent="1">
          <mxGeometry width="50" height="50" relative="1" as="geometry">
            <mxPoint x="628" y="162" as="sourcePoint" />
            <mxPoint x="649" y="162" as="targetPoint" />
          </mxGeometry>
        </mxCell>
        <mxCell id="6Z53nYPMjG-BIs90VBa6-1" value="" style="ellipse;whiteSpace=wrap;html=1;fillColor=#DBDBDB;strokeColor=#000000;fontColor=#333333;" vertex="1" parent="1">
          <mxGeometry x="470" y="260" width="20" height="20" as="geometry" />
        </mxCell>
        <mxCell id="6Z53nYPMjG-BIs90VBa6-2" value="" style="ellipse;whiteSpace=wrap;html=1;fillColor=#DBDBDB;strokeColor=#000000;fontColor=#333333;" vertex="1" parent="1">
          <mxGeometry x="470" y="420" width="20" height="20" as="geometry" />
        </mxCell>
        <mxCell id="6Z53nYPMjG-BIs90VBa6-3" value="" style="ellipse;whiteSpace=wrap;html=1;fillColor=#DBDBDB;strokeColor=#000000;fontColor=#333333;" vertex="1" parent="1">
          <mxGeometry x="470" y="340" width="20" height="20" as="geometry" />
        </mxCell>
        <mxCell id="t6IMHM-ATB2C9KcSPoJy-1" value="" style="ellipse;whiteSpace=wrap;html=1;rotation=-90;fillColor=#DBDBDB;strokeColor=#000000;fontColor=#333333;" vertex="1" parent="1">
          <mxGeometry x="611.25" y="222.66" width="20.29" height="16" as="geometry" />
        </mxCell>
        <mxCell id="t6IMHM-ATB2C9KcSPoJy-2" value="" style="ellipse;whiteSpace=wrap;html=1;rotation=-90;fillColor=#DBDBDB;strokeColor=#000000;fontColor=#333333;" vertex="1" parent="1">
          <mxGeometry x="611.25" y="300" width="20.29" height="16" as="geometry" />
        </mxCell>
        <mxCell id="t6IMHM-ATB2C9KcSPoJy-3" value="" style="ellipse;whiteSpace=wrap;html=1;rotation=-92;fillColor=#DBDBDB;strokeColor=#000000;fontColor=#333333;" vertex="1" parent="1">
          <mxGeometry x="611.25" y="380" width="20.29" height="16" as="geometry" />
        </mxCell>
      </root>
    </mxGraphModel>
  </diagram>
  <diagram id="3OwraNCW7VGoFPPK1cvc" name="Befestigen">
    <mxGraphModel dx="1407" dy="523" grid="1" gridSize="10" guides="1" tooltips="1" connect="1" arrows="1" fold="1" page="1" pageScale="1" pageWidth="1169" pageHeight="827" math="0" shadow="0">
      <root>
        <mxCell id="0" />
        <mxCell id="1" parent="0" />
        <mxCell id="CK4vChBZH3AI8YnMd9D4-1" value="" style="shape=cube;whiteSpace=wrap;html=1;boundedLbl=1;backgroundOutline=1;darkOpacity=0.05;darkOpacity2=0.1;size=20;flipV=0;flipH=1;strokeColor=none;fillColor=#dae8fc;" vertex="1" parent="1">
          <mxGeometry x="200" y="200" width="360" height="280" as="geometry" />
        </mxCell>
        <mxCell id="CK4vChBZH3AI8YnMd9D4-2" value="" style="shape=cube;whiteSpace=wrap;html=1;boundedLbl=1;backgroundOutline=1;darkOpacity=0.05;darkOpacity2=0.1;size=120;flipV=0;flipH=1;strokeColor=none;fillColor=#f8cecc;" vertex="1" parent="1">
          <mxGeometry x="530" y="100" width="160" height="380" as="geometry" />
        </mxCell>
        <mxCell id="CK4vChBZH3AI8YnMd9D4-3" value="" style="endArrow=none;html=1;rounded=0;entryX=0;entryY=0;entryDx=360;entryDy=20;entryPerimeter=0;exitX=1;exitY=1;exitDx=0;exitDy=0;exitPerimeter=0;" edge="1" parent="1" source="CK4vChBZH3AI8YnMd9D4-1" target="CK4vChBZH3AI8YnMd9D4-1">
          <mxGeometry width="50" height="50" relative="1" as="geometry">
            <mxPoint x="210" y="270" as="sourcePoint" />
            <mxPoint x="260" y="220" as="targetPoint" />
          </mxGeometry>
        </mxCell>
        <mxCell id="CK4vChBZH3AI8YnMd9D4-4" value="" style="endArrow=none;html=1;rounded=0;entryX=0;entryY=0;entryDx=360;entryDy=20;entryPerimeter=0;exitX=0;exitY=0;exitDx=340;exitDy=0;exitPerimeter=0;" edge="1" parent="1" source="CK4vChBZH3AI8YnMd9D4-1" target="CK4vChBZH3AI8YnMd9D4-1">
          <mxGeometry width="50" height="50" relative="1" as="geometry">
            <mxPoint x="210" y="490" as="sourcePoint" />
            <mxPoint x="210" y="230" as="targetPoint" />
          </mxGeometry>
        </mxCell>
        <mxCell id="CK4vChBZH3AI8YnMd9D4-5" value="" style="endArrow=none;html=1;rounded=0;exitX=0;exitY=0;exitDx=340;exitDy=0;exitPerimeter=0;" edge="1" parent="1" source="CK4vChBZH3AI8YnMd9D4-1">
          <mxGeometry width="50" height="50" relative="1" as="geometry">
            <mxPoint x="230" y="210" as="sourcePoint" />
            <mxPoint x="550" y="200" as="targetPoint" />
          </mxGeometry>
        </mxCell>
        <mxCell id="CK4vChBZH3AI8YnMd9D4-6" value="" style="endArrow=none;html=1;rounded=0;entryX=0;entryY=0;entryDx=160;entryDy=120;entryPerimeter=0;exitX=0;exitY=0;exitDx=40;exitDy=0;exitPerimeter=0;" edge="1" parent="1" source="CK4vChBZH3AI8YnMd9D4-2" target="CK4vChBZH3AI8YnMd9D4-2">
          <mxGeometry width="50" height="50" relative="1" as="geometry">
            <mxPoint x="230" y="210" as="sourcePoint" />
            <mxPoint x="566" y="210" as="targetPoint" />
          </mxGeometry>
        </mxCell>
        <mxCell id="CK4vChBZH3AI8YnMd9D4-7" value="" style="endArrow=none;html=1;rounded=0;entryX=0;entryY=0;entryDx=0;entryDy=0;entryPerimeter=0;exitX=0;exitY=0;exitDx=40;exitDy=0;exitPerimeter=0;" edge="1" parent="1" source="CK4vChBZH3AI8YnMd9D4-2" target="CK4vChBZH3AI8YnMd9D4-2">
          <mxGeometry width="50" height="50" relative="1" as="geometry">
            <mxPoint x="660" y="110" as="sourcePoint" />
            <mxPoint x="540" y="230" as="targetPoint" />
          </mxGeometry>
        </mxCell>
        <mxCell id="CK4vChBZH3AI8YnMd9D4-8" value="" style="endArrow=none;html=1;rounded=0;entryX=0;entryY=0;entryDx=120;entryDy=380;entryPerimeter=0;exitX=0;exitY=0;exitDx=0;exitDy=260;exitPerimeter=0;" edge="1" parent="1" source="CK4vChBZH3AI8YnMd9D4-2" target="CK4vChBZH3AI8YnMd9D4-2">
          <mxGeometry width="50" height="50" relative="1" as="geometry">
            <mxPoint x="700" y="370" as="sourcePoint" />
            <mxPoint x="700" y="110" as="targetPoint" />
          </mxGeometry>
        </mxCell>
        <mxCell id="CK4vChBZH3AI8YnMd9D4-9" value="" style="endArrow=none;html=1;rounded=0;entryX=0;entryY=0;entryDx=120;entryDy=380;entryPerimeter=0;" edge="1" parent="1" target="CK4vChBZH3AI8YnMd9D4-2">
          <mxGeometry width="50" height="50" relative="1" as="geometry">
            <mxPoint x="200" y="480" as="sourcePoint" />
            <mxPoint x="580" y="490" as="targetPoint" />
          </mxGeometry>
        </mxCell>
        <mxCell id="CK4vChBZH3AI8YnMd9D4-10" value="" style="shape=cube;whiteSpace=wrap;html=1;boundedLbl=1;backgroundOutline=1;darkOpacity=0.05;darkOpacity2=0.1;size=60;flipV=0;flipH=1;strokeColor=none;fillColor=#f5f5f5;fontColor=#333333;" vertex="1" parent="1">
          <mxGeometry x="569" y="162" width="80" height="319" as="geometry" />
        </mxCell>
        <mxCell id="CK4vChBZH3AI8YnMd9D4-11" value="" style="shape=cube;whiteSpace=wrap;html=1;boundedLbl=1;backgroundOutline=1;darkOpacity=0.05;darkOpacity2=0.1;size=10;flipV=0;flipH=1;strokeColor=none;fillColor=#f5f5f5;fontColor=#333333;" vertex="1" parent="1">
          <mxGeometry x="440" y="220" width="150" height="270" as="geometry" />
        </mxCell>
        <mxCell id="CK4vChBZH3AI8YnMd9D4-12" value="" style="endArrow=none;html=1;rounded=0;exitX=0;exitY=0;exitDx=0;exitDy=260;exitPerimeter=0;" edge="1" parent="1" source="CK4vChBZH3AI8YnMd9D4-2">
          <mxGeometry width="50" height="50" relative="1" as="geometry">
            <mxPoint x="580" y="230" as="sourcePoint" />
            <mxPoint x="690" y="100" as="targetPoint" />
          </mxGeometry>
        </mxCell>
        <mxCell id="CK4vChBZH3AI8YnMd9D4-13" value="" style="endArrow=none;html=1;rounded=0;exitX=0.75;exitY=0.316;exitDx=0;exitDy=0;exitPerimeter=0;" edge="1" parent="1" source="CK4vChBZH3AI8YnMd9D4-2">
          <mxGeometry width="50" height="50" relative="1" as="geometry">
            <mxPoint x="700" y="370" as="sourcePoint" />
            <mxPoint x="690" y="100" as="targetPoint" />
          </mxGeometry>
        </mxCell>
        <mxCell id="CK4vChBZH3AI8YnMd9D4-14" value="" style="endArrow=none;html=1;rounded=0;exitX=0;exitY=0;exitDx=360;exitDy=20;exitPerimeter=0;" edge="1" parent="1" source="CK4vChBZH3AI8YnMd9D4-1">
          <mxGeometry width="50" height="50" relative="1" as="geometry">
            <mxPoint x="580" y="230" as="sourcePoint" />
            <mxPoint x="570" y="220" as="targetPoint" />
          </mxGeometry>
        </mxCell>
        <mxCell id="CK4vChBZH3AI8YnMd9D4-15" value="" style="endArrow=none;html=1;rounded=0;entryX=0;entryY=0;entryDx=150;entryDy=10;entryPerimeter=0;" edge="1" parent="1" target="CK4vChBZH3AI8YnMd9D4-11">
          <mxGeometry width="50" height="50" relative="1" as="geometry">
            <mxPoint x="450" y="220" as="sourcePoint" />
            <mxPoint x="810" y="270" as="targetPoint" />
          </mxGeometry>
        </mxCell>
        <mxCell id="CK4vChBZH3AI8YnMd9D4-16" value="" style="endArrow=none;html=1;rounded=0;entryX=0;entryY=0;entryDx=150;entryDy=10;entryPerimeter=0;exitX=0.067;exitY=0.037;exitDx=0;exitDy=0;exitPerimeter=0;" edge="1" parent="1" source="CK4vChBZH3AI8YnMd9D4-11" target="CK4vChBZH3AI8YnMd9D4-11">
          <mxGeometry width="50" height="50" relative="1" as="geometry">
            <mxPoint x="340" y="290" as="sourcePoint" />
            <mxPoint x="390" y="240" as="targetPoint" />
          </mxGeometry>
        </mxCell>
        <mxCell id="CK4vChBZH3AI8YnMd9D4-17" value="" style="endArrow=none;html=1;rounded=0;entryX=0;entryY=0;entryDx=0;entryDy=0;entryPerimeter=0;" edge="1" parent="1" target="CK4vChBZH3AI8YnMd9D4-10">
          <mxGeometry width="50" height="50" relative="1" as="geometry">
            <mxPoint x="580" y="230" as="sourcePoint" />
            <mxPoint x="450" y="240" as="targetPoint" />
          </mxGeometry>
        </mxCell>
        <mxCell id="CK4vChBZH3AI8YnMd9D4-18" value="" style="endArrow=none;html=1;rounded=0;entryX=0;entryY=0;entryDx=10;entryDy=270;entryPerimeter=0;" edge="1" parent="1" target="CK4vChBZH3AI8YnMd9D4-11">
          <mxGeometry width="50" height="50" relative="1" as="geometry">
            <mxPoint x="580" y="230" as="sourcePoint" />
            <mxPoint x="659" y="172" as="targetPoint" />
          </mxGeometry>
        </mxCell>
        <mxCell id="CK4vChBZH3AI8YnMd9D4-19" value="" style="endArrow=none;html=1;rounded=0;entryX=0;entryY=0;entryDx=10;entryDy=270;entryPerimeter=0;exitX=0;exitY=0;exitDx=0;exitDy=259;exitPerimeter=0;" edge="1" parent="1" source="CK4vChBZH3AI8YnMd9D4-10" target="CK4vChBZH3AI8YnMd9D4-11">
          <mxGeometry width="50" height="50" relative="1" as="geometry">
            <mxPoint x="590" y="240" as="sourcePoint" />
            <mxPoint x="590" y="500" as="targetPoint" />
          </mxGeometry>
        </mxCell>
        <mxCell id="CK4vChBZH3AI8YnMd9D4-20" value="" style="endArrow=none;html=1;rounded=0;exitX=1;exitY=1;exitDx=0;exitDy=0;exitPerimeter=0;" edge="1" parent="1" source="CK4vChBZH3AI8YnMd9D4-11">
          <mxGeometry width="50" height="50" relative="1" as="geometry">
            <mxPoint x="659" y="431" as="sourcePoint" />
            <mxPoint x="580" y="490" as="targetPoint" />
          </mxGeometry>
        </mxCell>
        <mxCell id="CK4vChBZH3AI8YnMd9D4-21" value="" style="endArrow=none;html=1;rounded=0;" edge="1" parent="1">
          <mxGeometry width="50" height="50" relative="1" as="geometry">
            <mxPoint x="440" y="490" as="sourcePoint" />
            <mxPoint x="440" y="230" as="targetPoint" />
          </mxGeometry>
        </mxCell>
        <mxCell id="CK4vChBZH3AI8YnMd9D4-22" value="" style="endArrow=none;html=1;rounded=0;entryX=0;entryY=0;entryDx=0;entryDy=0;entryPerimeter=0;exitX=0;exitY=0;exitDx=0;exitDy=259;exitPerimeter=0;" edge="1" parent="1" source="CK4vChBZH3AI8YnMd9D4-10" target="CK4vChBZH3AI8YnMd9D4-10">
          <mxGeometry width="50" height="50" relative="1" as="geometry">
            <mxPoint x="450" y="500" as="sourcePoint" />
            <mxPoint x="450" y="240" as="targetPoint" />
          </mxGeometry>
        </mxCell>
        <mxCell id="CK4vChBZH3AI8YnMd9D4-23" value="" style="endArrow=none;html=1;rounded=0;exitX=0;exitY=0;exitDx=20;exitDy=0;exitPerimeter=0;" edge="1" parent="1">
          <mxGeometry width="50" height="50" relative="1" as="geometry">
            <mxPoint x="628" y="162" as="sourcePoint" />
            <mxPoint x="649" y="162" as="targetPoint" />
          </mxGeometry>
        </mxCell>
        <mxCell id="CK4vChBZH3AI8YnMd9D4-24" value="" style="ellipse;whiteSpace=wrap;html=1;fillColor=#DBDBDB;strokeColor=#000000;fontColor=#333333;" vertex="1" parent="1">
          <mxGeometry x="470" y="260" width="20" height="20" as="geometry" />
        </mxCell>
        <mxCell id="CK4vChBZH3AI8YnMd9D4-25" value="" style="ellipse;whiteSpace=wrap;html=1;fillColor=#DBDBDB;strokeColor=#000000;fontColor=#333333;" vertex="1" parent="1">
          <mxGeometry x="470" y="420" width="20" height="20" as="geometry" />
        </mxCell>
        <mxCell id="CK4vChBZH3AI8YnMd9D4-26" value="" style="ellipse;whiteSpace=wrap;html=1;fillColor=#DBDBDB;strokeColor=#000000;fontColor=#333333;" vertex="1" parent="1">
          <mxGeometry x="470" y="340" width="20" height="20" as="geometry" />
        </mxCell>
        <mxCell id="CK4vChBZH3AI8YnMd9D4-27" value="" style="ellipse;whiteSpace=wrap;html=1;rotation=-90;fillColor=#DBDBDB;strokeColor=#000000;fontColor=#333333;" vertex="1" parent="1">
          <mxGeometry x="611.25" y="222.66" width="20.29" height="16" as="geometry" />
        </mxCell>
        <mxCell id="CK4vChBZH3AI8YnMd9D4-28" value="" style="ellipse;whiteSpace=wrap;html=1;rotation=-90;fillColor=#DBDBDB;strokeColor=#000000;fontColor=#333333;" vertex="1" parent="1">
          <mxGeometry x="611.25" y="300" width="20.29" height="16" as="geometry" />
        </mxCell>
        <mxCell id="CK4vChBZH3AI8YnMd9D4-29" value="" style="ellipse;whiteSpace=wrap;html=1;rotation=-90;fillColor=#DBDBDB;strokeColor=#000000;fontColor=#333333;" vertex="1" parent="1">
          <mxGeometry x="611.25" y="380" width="20.29" height="16" as="geometry" />
        </mxCell>
        <mxCell id="CK4vChBZH3AI8YnMd9D4-31" value="" style="endArrow=none;html=1;strokeWidth=1;rounded=0;dashed=1;" edge="1" parent="1">
          <mxGeometry width="50" height="50" relative="1" as="geometry">
            <mxPoint x="430" y="320" as="sourcePoint" />
            <mxPoint x="480" y="270" as="targetPoint" />
          </mxGeometry>
        </mxCell>
        <mxCell id="CK4vChBZH3AI8YnMd9D4-32" value="" style="endArrow=none;html=1;strokeWidth=1;rounded=0;dashed=1;" edge="1" parent="1">
          <mxGeometry width="50" height="50" relative="1" as="geometry">
            <mxPoint x="430" y="400" as="sourcePoint" />
            <mxPoint x="480" y="350" as="targetPoint" />
          </mxGeometry>
        </mxCell>
        <mxCell id="CK4vChBZH3AI8YnMd9D4-33" value="" style="endArrow=none;html=1;strokeWidth=1;rounded=0;dashed=1;" edge="1" parent="1">
          <mxGeometry width="50" height="50" relative="1" as="geometry">
            <mxPoint x="430" y="480" as="sourcePoint" />
            <mxPoint x="480" y="430" as="targetPoint" />
          </mxGeometry>
        </mxCell>
        <mxCell id="CK4vChBZH3AI8YnMd9D4-34" value="" style="endArrow=none;html=1;strokeWidth=1;rounded=0;dashed=1;" edge="1" parent="1">
          <mxGeometry width="50" height="50" relative="1" as="geometry">
            <mxPoint x="710" y="230" as="sourcePoint" />
            <mxPoint x="622" y="231" as="targetPoint" />
          </mxGeometry>
        </mxCell>
        <mxCell id="CK4vChBZH3AI8YnMd9D4-35" value="" style="endArrow=none;html=1;strokeWidth=1;rounded=0;dashed=1;" edge="1" parent="1">
          <mxGeometry width="50" height="50" relative="1" as="geometry">
            <mxPoint x="708" y="307.5" as="sourcePoint" />
            <mxPoint x="620" y="308.5" as="targetPoint" />
          </mxGeometry>
        </mxCell>
        <mxCell id="CK4vChBZH3AI8YnMd9D4-36" value="" style="endArrow=none;html=1;strokeWidth=1;rounded=0;dashed=1;" edge="1" parent="1">
          <mxGeometry width="50" height="50" relative="1" as="geometry">
            <mxPoint x="708" y="387.5" as="sourcePoint" />
            <mxPoint x="620" y="388.5" as="targetPoint" />
          </mxGeometry>
        </mxCell>
        <mxCell id="CK4vChBZH3AI8YnMd9D4-37" value="" style="strokeWidth=2;html=1;shape=mxgraph.flowchart.database;whiteSpace=wrap;rotation=-135;" vertex="1" parent="1">
          <mxGeometry x="400" y="310" width="20" height="60" as="geometry" />
        </mxCell>
        <mxCell id="CK4vChBZH3AI8YnMd9D4-38" value="" style="strokeWidth=2;html=1;shape=mxgraph.flowchart.database;whiteSpace=wrap;rotation=-135;" vertex="1" parent="1">
          <mxGeometry x="400" y="384" width="20" height="60" as="geometry" />
        </mxCell>
        <mxCell id="CK4vChBZH3AI8YnMd9D4-39" value="" style="strokeWidth=2;html=1;shape=mxgraph.flowchart.database;whiteSpace=wrap;rotation=-135;" vertex="1" parent="1">
          <mxGeometry x="400" y="470" width="20" height="60" as="geometry" />
        </mxCell>
        <mxCell id="CK4vChBZH3AI8YnMd9D4-40" value="" style="strokeWidth=2;html=1;shape=mxgraph.flowchart.database;whiteSpace=wrap;rotation=90;" vertex="1" parent="1">
          <mxGeometry x="720" y="210.66" width="20" height="40" as="geometry" />
        </mxCell>
        <mxCell id="qkqrFxB83UTVHHMFQWLC-1" value="" style="strokeWidth=2;html=1;shape=mxgraph.flowchart.database;whiteSpace=wrap;rotation=90;strokeColor=none;fillColor=#FCFCFC;fontColor=#333333;" vertex="1" parent="1">
          <mxGeometry x="740" y="210.66" width="20" height="40" as="geometry" />
        </mxCell>
        <mxCell id="qkqrFxB83UTVHHMFQWLC-4" value="" style="endArrow=none;html=1;rounded=0;strokeWidth=2;entryX=0;entryY=0.85;entryDx=0;entryDy=0;entryPerimeter=0;exitX=0;exitY=0.15;exitDx=0;exitDy=0;exitPerimeter=0;" edge="1" parent="1" source="qkqrFxB83UTVHHMFQWLC-1" target="CK4vChBZH3AI8YnMd9D4-40">
          <mxGeometry width="50" height="50" relative="1" as="geometry">
            <mxPoint x="710" y="270" as="sourcePoint" />
            <mxPoint x="760" y="220" as="targetPoint" />
          </mxGeometry>
        </mxCell>
        <mxCell id="qkqrFxB83UTVHHMFQWLC-5" value="" style="endArrow=none;html=1;rounded=0;strokeWidth=2;entryX=1;entryY=0.85;entryDx=0;entryDy=0;entryPerimeter=0;exitX=1;exitY=0.15;exitDx=0;exitDy=0;exitPerimeter=0;" edge="1" parent="1" source="qkqrFxB83UTVHHMFQWLC-1" target="CK4vChBZH3AI8YnMd9D4-40">
          <mxGeometry width="50" height="50" relative="1" as="geometry">
            <mxPoint x="774" y="231" as="sourcePoint" />
            <mxPoint x="726" y="231" as="targetPoint" />
          </mxGeometry>
        </mxCell>
        <mxCell id="qkqrFxB83UTVHHMFQWLC-8" value="" style="ellipse;whiteSpace=wrap;html=1;rotation=90;strokeWidth=2;" vertex="1" parent="1">
          <mxGeometry x="754" y="223.91" width="20" height="13.5" as="geometry" />
        </mxCell>
        <mxCell id="qkqrFxB83UTVHHMFQWLC-9" value="" style="strokeWidth=2;html=1;shape=mxgraph.flowchart.database;whiteSpace=wrap;rotation=90;" vertex="1" parent="1">
          <mxGeometry x="720" y="288" width="20" height="40" as="geometry" />
        </mxCell>
        <mxCell id="qkqrFxB83UTVHHMFQWLC-10" value="" style="strokeWidth=2;html=1;shape=mxgraph.flowchart.database;whiteSpace=wrap;rotation=90;strokeColor=none;fillColor=#FCFCFC;fontColor=#333333;" vertex="1" parent="1">
          <mxGeometry x="740" y="288" width="20" height="40" as="geometry" />
        </mxCell>
        <mxCell id="qkqrFxB83UTVHHMFQWLC-11" value="" style="endArrow=none;html=1;rounded=0;strokeWidth=2;entryX=0;entryY=0.85;entryDx=0;entryDy=0;entryPerimeter=0;exitX=0;exitY=0.15;exitDx=0;exitDy=0;exitPerimeter=0;" edge="1" parent="1" source="qkqrFxB83UTVHHMFQWLC-10" target="qkqrFxB83UTVHHMFQWLC-9">
          <mxGeometry width="50" height="50" relative="1" as="geometry">
            <mxPoint x="710" y="347.34000000000003" as="sourcePoint" />
            <mxPoint x="760" y="297.34000000000003" as="targetPoint" />
          </mxGeometry>
        </mxCell>
        <mxCell id="qkqrFxB83UTVHHMFQWLC-12" value="" style="endArrow=none;html=1;rounded=0;strokeWidth=2;entryX=1;entryY=0.85;entryDx=0;entryDy=0;entryPerimeter=0;exitX=1;exitY=0.15;exitDx=0;exitDy=0;exitPerimeter=0;" edge="1" parent="1" source="qkqrFxB83UTVHHMFQWLC-10" target="qkqrFxB83UTVHHMFQWLC-9">
          <mxGeometry width="50" height="50" relative="1" as="geometry">
            <mxPoint x="774" y="308.34000000000003" as="sourcePoint" />
            <mxPoint x="726" y="308.34000000000003" as="targetPoint" />
          </mxGeometry>
        </mxCell>
        <mxCell id="qkqrFxB83UTVHHMFQWLC-13" value="" style="ellipse;whiteSpace=wrap;html=1;rotation=90;strokeWidth=2;" vertex="1" parent="1">
          <mxGeometry x="754" y="301.25" width="20" height="13.5" as="geometry" />
        </mxCell>
        <mxCell id="qkqrFxB83UTVHHMFQWLC-14" value="" style="strokeWidth=2;html=1;shape=mxgraph.flowchart.database;whiteSpace=wrap;rotation=90;" vertex="1" parent="1">
          <mxGeometry x="720" y="368" width="20" height="40" as="geometry" />
        </mxCell>
        <mxCell id="qkqrFxB83UTVHHMFQWLC-15" value="" style="strokeWidth=2;html=1;shape=mxgraph.flowchart.database;whiteSpace=wrap;rotation=90;strokeColor=none;fillColor=#FCFCFC;fontColor=#333333;" vertex="1" parent="1">
          <mxGeometry x="740" y="368" width="20" height="40" as="geometry" />
        </mxCell>
        <mxCell id="qkqrFxB83UTVHHMFQWLC-16" value="" style="endArrow=none;html=1;rounded=0;strokeWidth=2;entryX=0;entryY=0.85;entryDx=0;entryDy=0;entryPerimeter=0;exitX=0;exitY=0.15;exitDx=0;exitDy=0;exitPerimeter=0;" edge="1" parent="1" source="qkqrFxB83UTVHHMFQWLC-15" target="qkqrFxB83UTVHHMFQWLC-14">
          <mxGeometry width="50" height="50" relative="1" as="geometry">
            <mxPoint x="710" y="427.34000000000003" as="sourcePoint" />
            <mxPoint x="760" y="377.34000000000003" as="targetPoint" />
          </mxGeometry>
        </mxCell>
        <mxCell id="qkqrFxB83UTVHHMFQWLC-17" value="" style="endArrow=none;html=1;rounded=0;strokeWidth=2;entryX=1;entryY=0.85;entryDx=0;entryDy=0;entryPerimeter=0;exitX=1;exitY=0.15;exitDx=0;exitDy=0;exitPerimeter=0;" edge="1" parent="1" source="qkqrFxB83UTVHHMFQWLC-15" target="qkqrFxB83UTVHHMFQWLC-14">
          <mxGeometry width="50" height="50" relative="1" as="geometry">
            <mxPoint x="774" y="388.34000000000003" as="sourcePoint" />
            <mxPoint x="726" y="388.34000000000003" as="targetPoint" />
          </mxGeometry>
        </mxCell>
        <mxCell id="qkqrFxB83UTVHHMFQWLC-18" value="" style="ellipse;whiteSpace=wrap;html=1;rotation=90;strokeWidth=2;" vertex="1" parent="1">
          <mxGeometry x="754" y="381.25" width="20" height="13.5" as="geometry" />
        </mxCell>
      </root>
    </mxGraphModel>
  </diagram>
</mxfile>
